<?xml version="1.0" standalone="no"?>
<!DOCTYPE svg PUBLIC "-//W3C//DTD SVG 1.1//EN" "http://www.w3.org/Graphics/SVG/1.1/DTD/svg11.dtd">
<svg xmlns="http://www.w3.org/2000/svg">
<metadata>Copyright (C) 2020 by original authors @ fontello.com</metadata>
<defs>
<font id="hrtech" horiz-adv-x="1000" >
<font-face font-family="hrtech" font-weight="400" font-stretch="normal" units-per-em="1000" ascent="850" descent="-150" />
<missing-glyph horiz-adv-x="1000" />
<glyph glyph-name="network" unicode="&#xe800;" d="M891 850c-60 0-109-49-109-109 0-19 5-37 13-52l-179-179c-24 19-55 31-89 31s-64-12-89-31l-139 140c6 11 10 23 10 36 0 41-32 73-73 73s-72-32-72-73 32-72 72-72c14 0 26 4 37 10l140-139c-20-25-31-56-31-89s11-65 31-90l-231-230c-19 18-45 29-73 29-60 0-109-49-109-110s49-109 109-109 109 49 109 109c0 19-5 37-13 53l233 233c20-16 45-26 71-30v-184c-51-9-91-54-91-108 0-60 49-109 109-109s109 49 109 109c0 54-39 99-90 108v184c26 4 50 14 70 30l140-140c-7-11-10-23-10-36 0-41 32-73 72-73s73 32 73 73-33 72-73 72c-13 0-26-4-36-10l-140 139c19 25 31 56 31 90s-12 64-31 89l176 175c19-17 45-28 73-28 60 0 109 49 109 109s-49 109-109 109z m-691-164c0 20 16 37 36 37s37-17 37-37-17-36-37-36-36 16-36 36z m-91-763c-40 0-73 32-73 72s33 73 73 73 73-32 73-73-33-72-73-72z m491 36c0-40-33-73-73-73s-72 33-72 73 32 73 72 73 73-33 73-73z m-73 327c-60 0-109 49-109 110s49 109 109 109 109-49 109-109-49-110-109-110z m328-181c0-20-17-37-37-37s-36 17-36 37 16 36 36 36 37-16 37-36z m36 563c-40 0-73 33-73 73s33 73 73 73 73-33 73-73-33-73-73-73z" horiz-adv-x="1000" />

<glyph glyph-name="down-dir" unicode="&#xe801;" d="M460 550l-230-400-230 400 460 0z" horiz-adv-x="460" />

<glyph glyph-name="rocket" unicode="&#xe802;" d="M525 375c-8 7-20 7-28 0-7-8-7-20 0-28 8-7 20-7 28 0 7 8 7 20 0 28z m248 248c-38 39-100 39-138 0-38-38-38-100 0-138 38-38 100-38 138 0 39 38 39 100 0 138z m-27-110c-23-23-60-23-83 0-23 23-23 60 0 83 23 23 60 23 83 0 23-23 23-60 0-83z m248 331c-4 4-9 6-14 6-5 0-110-4-235-49-100-35-183-86-248-150-14-14-28-30-42-46-64 38-115 26-147 9-74-40-120-148-120-225 0-8 4-15 12-18 2-1 5-2 7-2 5 0 10 2 14 6 39 39 88 37 103 34l7-6c-13-32-24-64-32-95-3-11-2-23 2-34-19-9-37-22-52-37-51-51-61-173-61-178-1-6 1-12 5-16 4-3 9-5 14-5 1 0 1 0 2 0 5 0 127 10 178 61 15 15 28 33 37 52 11-4 23-5 34-2 31 8 63 19 95 32l6-7c3-15 5-64-34-103-6-6-7-14-4-21 3-8 10-12 18-12 77 0 185 46 225 120 17 32 29 83-9 147 16 14 32 28 46 42 64 65 115 148 150 248 45 125 49 230 49 235 0 5-2 10-6 14z m-763-413c12 58 48 123 95 148 32 17 67 16 104-5-31-41-59-86-82-133 0 0-3 4-10 6-3 0-54 11-107-16z m128-305c-27-27-90-41-130-47 6 40 20 103 47 130 15 15 33 26 50 33l66-66c-7-17-18-35-33-50z m89 61c-6-2-12 0-17 5-25 26-35 35-38 39-6 5-20 19-51 50-5 5-7 11-5 17 6 24 14 49 24 75l162-162c-26-10-51-18-75-24z m281-11c-25-47-90-83-148-95 18 35 22 80 16 108-2 6-6 9-6 9 47 23 92 51 133 82 21-37 22-72 5-104z m44 199c-17-18-36-35-56-51-48-38-100-70-156-96l-183 183c26 56 58 108 96 156 16 20 33 39 51 56 58 58 132 104 222 137l163-163c-33-90-79-164-137-222z m151 263l-136 136c74 24 139 32 171 35-3-32-11-97-35-171z m-454-595c-8 8-20 8-28 0l-55-55c-8-8-8-20 0-28 7-7 20-7 27 0l56 56c7 7 7 20 0 27z m-277 277c-7 7-20 7-27 0l-56-56c-7-7-7-20 0-27 8-8 20-8 28 0l55 55c8 8 8 20 0 28z m138-304c-7 7-20 7-27 0l-133-133c-7-7-7-20 0-27 8-8 20-8 28 0l132 132c8 8 8 20 0 28z m-156 0c-7 7-20 7-27 0l-133-133c-7-7-7-20 0-27 8-8 20-8 28 0l132 132c8 8 8 20 0 28z m-9 165c-8 8-20 8-28 0l-132-132c-8-8-8-20 0-28 7-7 20-7 27 0l133 133c7 7 7 20 0 27z m442 277c-8 7-20 7-28 0l-28-28c-7-8-7-20 0-28 8-7 20-7 28 0l28 28c7 8 7 20 0 28z" horiz-adv-x="1000" />

<glyph glyph-name="magic" unicode="&#xe803;" d="M996-17l-473 473c1 2 2 3 2 5a17 17 0 0 1-26 19l-22 22-13 13-15 15h0l-126 126-13 13-25 26-12 11a17 17 0 0 1-24 0s0 0 0 0l-32-32h0l-9-9-22-22-11-10-20-21-12-12a17 17 0 0 1-3-5 16 16 0 0 1-2-6c0 0 0 0 0-1s0 0 0-1a16 16 0 0 1 2-5 17 17 0 0 1 3-5l12-12 25-26h0l13-13h0l26-25h0l13-13 87-87 50-51a17 17 0 0 1 13-28 17 17 0 0 1 7 2c1 1 3 2 4 2l473-472a17 17 0 0 1 24 0l106 106a17 17 0 0 1 0 23z m-665 453l-11 11h0l-26 26-13 13-26 25h0l-7 7-70 70 52 52h0l7 7 24 24 64-64h0l13-13h0l26-26 12-12 26-26h0l11-11z m172 218a241 241 0 0 0 9-30 17 17 0 0 1 16-13 17 17 0 0 1 3 0 17 17 0 0 1 13 20 276 276 0 0 1-9 34 17 17 0 1 1-32-11z m13-91a242 242 0 0 0-3-30 17 17 0 0 1 14-19 16 16 0 0 1 2-1 17 17 0 0 1 17 14 277 277 0 0 1 4 35 17 17 0 1 1-34 1z m-40 146a17 17 0 0 1 28 18 275 275 0 0 1-21 28 17 17 0 1 1-25-22 244 244 0 0 0 18-24z m-177 106a246 246 0 0 0 30-4 17 17 0 0 1 4-1 17 17 0 0 1 3 33 275 275 0 0 1-34 6 17 17 0 1 1-3-34z m-96-8a17 17 0 0 1 5 0 244 244 0 0 0 30 7 17 17 0 0 1-5 33 276 276 0 0 1-34-8 17 17 0 0 1 4-32z m-87-44a17 17 0 0 1 11 3 237 237 0 0 0 25 17 17 17 0 1 1-17 29 276 276 0 0 1-29-20 17 17 0 0 1 10-29z m270 27a243 243 0 0 0 26-16 17 17 0 0 1 19 27 276 276 0 0 1-29 18 17 17 0 1 1-16-29z m-161-452a245 245 0 0 0-30 8 17 17 0 0 1-11-31 278 278 0 0 1 34-10 17 17 0 0 1 3 0 17 17 0 0 1 4 33z m-209 260a19 19 0 0 1 3 0 17 17 0 0 1 17 14 244 244 0 0 0 6 30 17 17 0 0 1-32 9 273 273 0 0 1-7-34 17 17 0 0 1 13-19z m300-262a241 241 0 0 0-31-3 17 17 0 0 1 1-33h1a274 274 0 0 1 34 3 17 17 0 1 1-5 33z m-200 56a17 17 0 1 1-22-25 275 275 0 0 1 28-21 17 17 0 1 1 19 27 238 238 0 0 0-25 19z m-59 351a279 279 0 0 1-19-28 17 17 0 1 1 28-17 246 246 0 0 0 17 25 17 17 0 0 1-26 20z m-18-222a242 242 0 0 0-5 30 17 17 0 0 1-33-3 275 275 0 0 1 5-35 17 17 0 0 1 16-13 16 16 0 0 1 4 1 17 17 0 0 1 13 20z m21-58a17 17 0 0 1-30-15 276 276 0 0 1 18-30 17 17 0 1 1 27 19 247 247 0 0 0-15 26z" horiz-adv-x="1000" />

<glyph glyph-name="left-dir" unicode="&#xe804;" d="M400 580l0-460-400 230z" horiz-adv-x="400" />

<glyph glyph-name="right-dir" unicode="&#xe805;" d="M0 580l400-230-400-230 0 460z" horiz-adv-x="400" />

<glyph glyph-name="up-dir" unicode="&#xe806;" d="M0 150l230 400 230-400-460 0z" horiz-adv-x="460" />

<glyph glyph-name="up-chevron" unicode="&#xe807;" d="M62 230q-26-22-50 0-24 24 0 50l196 190q26 26 48 0l196-190q24-26 0-50-24-22-50 0l-170 158z" horiz-adv-x="464" />

<glyph glyph-name="right-chevron" unicode="&#xe808;" d="M13 180l158 170-158 172q-26 26 0 48 26 26 48 0l192-194q24-26 0-50l-192-194q-22-26-48 0-26 22 0 48z" horiz-adv-x="265" />

<glyph glyph-name="left-chevron" unicode="&#xe809;" d="M252 180q26-26 0-48-26-26-48 0l-192 194q-24 24 0 50l192 194q22 26 48 0 26-22 0-48l-156-172z" horiz-adv-x="265" />

<glyph glyph-name="down-chevron" unicode="&#xe80a;" d="M405 470q22 26 48 0 26-22 0-48l-196-192q-22-22-48 0l-196 192q-26 26 0 48 24 24 50 0l170-156z" horiz-adv-x="466" />

<glyph glyph-name="play" unicode="&#xe80b;" d="M486 376q14-10 14-26 0-14-14-24l-428-266q-24-16-41-6t-17 40l0 514q0 30 17 40t41-6z" horiz-adv-x="500" />

<glyph glyph-name="pause" unicode="&#xe80c;" d="M440 700q90 0 90-64l0-570q0-66-90-66t-90 66l0 570q0 64 90 64z m-350 0q90 0 90-64l0-570q0-66-90-66t-90 66l0 570q0 64 90 64z" horiz-adv-x="530" />

<glyph glyph-name="share" unicode="&#xe80d;" d="M650 200q62 0 106-43t44-107q0-62-44-106t-106-44-106 44-44 106q0 6 1 14t1 12l-260 156q-42-32-92-32-62 0-106 44t-44 106 44 106 106 44q54 0 92-30l260 156q0 4-1 12t-1 12q0 62 44 106t106 44 106-43 44-107q0-62-44-106t-106-44q-52 0-90 32l-262-156q2-8 2-26 0-16-2-24l262-156q36 30 90 30z" horiz-adv-x="800" />

<glyph glyph-name="spin" unicode="&#xe839;" d="M855 9c-189-190-520-172-705 13-190 190-200 494-28 695 11 13 21 26 35 34 36 23 85 18 117-13 30-31 35-76 16-112-5-9-9-15-16-22-140-151-145-379-8-516 153-153 407-121 542 34 106 122 142 297 77 451-83 198-305 291-510 222l0 1c236 82 492-24 588-252 71-167 37-355-72-493-11-15-23-29-36-42z" horiz-adv-x="1000" />

<glyph glyph-name="instagram" unicode="&#xf05d;" d="M0 57v287h215q24-83 94-136t160-54 159 54 94 136h215v-287q0-73-51-124t-125-52h-585q-73 0-124 52t-52 124z m0 433v153q0 72 52 124t124 51h585q73 0 125-51t51-124v-153h-215q-24 84-94 137t-159 54-160-54-94-137h-215z m323-72q0-61 42-104t104-43q61 0 103 43t43 104-43 103-103 43q-61 0-104-43t-42-103z" horiz-adv-x="937.5" />

<glyph glyph-name="instagram-circled" unicode="&#xf05e;" d="M0 350q0 95 37 182t100 149 150 100 182 37 182-37 149-100 100-149 37-182-37-182-100-150-149-100-182-37-182 37-150 100-100 150-37 182z m269-130q0-31 22-53t53-22h249q32 0 53 22t22 53v123h-92q-9-36-39-59t-68-23-68 23-41 59h-91v-123z m0 185h91q11 36 41 58t68 23 68-23 39-58h92v65q0 31-22 53t-53 21h-249q-32 0-53-21t-22-53v-65z m137-31q0-26 18-44t45-18 44 18 18 44-18 44-44 19-45-19-18-44z" horiz-adv-x="937.5" />

<glyph glyph-name="twitter" unicode="&#xf309;" d="M920 636q-36-54-94-98l0-24q0-130-60-250t-186-203-290-83q-160 0-290 84 14-2 46-2 132 0 234 80-62 2-110 38t-66 94q10-4 34-4 26 0 50 6-66 14-108 66t-42 120l0 2q36-20 84-24-84 58-84 158 0 48 26 94 154-188 390-196-6 18-6 42 0 78 55 133t135 55q82 0 136-58 60 12 120 44-20-66-82-104 56 8 108 30z" horiz-adv-x="920" />

<glyph glyph-name="twitter-circled" unicode="&#xf30a;" d="M480 830q200 0 340-140t140-340q0-198-140-339t-340-141q-198 0-339 141t-141 339q0 200 141 340t339 140z m196-392q30 22 46 48-32-12-54-14 30 18 42 52-30-16-60-22-28 28-70 28-40 0-67-28t-27-66q0-2 1-10t1-12q-120 6-194 100-14-24-14-48 0-50 44-78-26 0-44 12l0-2q0-34 21-60t55-32q-16-4-24-4-12 0-18 2 20-66 88-66-50-40-118-40l-22 0q68-42 144-42 122 0 196 83t74 187l0 12z" horiz-adv-x="960" />

<glyph glyph-name="facebook" unicode="&#xf30c;" d="M500 644l-142 0q-14 0-25-15t-11-37l0-102 178 0 0-148-178 0 0-442-170 0 0 442-152 0 0 148 152 0 0 86q0 94 59 159t147 65l142 0 0-156z" horiz-adv-x="500" />

<glyph glyph-name="facebook-circled" unicode="&#xf30d;" d="M480 830q200 0 340-140t140-340q0-198-140-339t-340-141-340 141-140 339q0 200 140 340t340 140z m114-330l0 78-72 0q-44 0-74-33t-30-81l0-44-76 0 0-74 76 0 0-222 86 0 0 222 90 0 0 74-90 0 0 52q0 28 18 28l72 0z" horiz-adv-x="960" />

<glyph glyph-name="linkedin" unicode="&#xf318;" d="M204 698q0-40-29-68t-75-28q-44 0-72 28t-28 68q0 42 28 69t74 27 73-27 29-69z m-198-790l0 618 192 0 0-618-192 0z m306 420q0 86-4 198l166 0 10-86 4 0q60 100 190 100 100 0 161-67t61-199l0-366-192 0 0 342q0 134-98 134-70 0-98-72-6-12-6-48l0-356-194 0 0 420z" horiz-adv-x="900" />

<glyph glyph-name="linkedin-circled" unicode="&#xf319;" d="M480 830q200 0 340-140t140-340q0-198-140-339t-340-141q-198 0-339 141t-141 339q0 200 141 340t339 140z m-118-678l0 312-96 0 0-312 96 0z m-48 352q52 0 52 48t-52 48q-22 0-37-14t-15-34q0-48 52-48z m404-352l0 184q0 66-31 101t-81 35q-66 0-96-50l-2 0-6 42-84 0q2-28 2-100l0-212 98 0 0 180q0 18 4 24 12 38 50 38 48 0 48-68l0-174 98 0z" horiz-adv-x="960" />
</font>
</defs>
</svg>
